<?xml version="1.0" encoding="UTF-8" standalone="no"?>
<!-- Created with Inkscape (http://www.inkscape.org/) -->

<svg
   width="120mm"
   height="37.755787mm"
   viewBox="0 0 120 37.755787"
   version="1.1"
   id="svg3475"
   inkscape:version="1.2 (dc2aedaf03, 2022-05-15)"
   sodipodi:docname="logo.svg"
   xmlns:inkscape="http://www.inkscape.org/namespaces/inkscape"
   xmlns:sodipodi="http://sodipodi.sourceforge.net/DTD/sodipodi-0.dtd"
   xmlns="http://www.w3.org/2000/svg"
   xmlns:svg="http://www.w3.org/2000/svg">
  <sodipodi:namedview
     id="namedview3477"
     pagecolor="#ffffff"
     bordercolor="#000000"
     borderopacity="0.25"
     inkscape:showpageshadow="2"
     inkscape:pageopacity="0.0"
     inkscape:pagecheckerboard="0"
     inkscape:deskcolor="#d1d1d1"
     inkscape:document-units="mm"
     showgrid="false"
     inkscape:zoom="3.744293"
     inkscape:cx="141.68229"
     inkscape:cy="64.631694"
     inkscape:window-width="1920"
     inkscape:window-height="1007"
     inkscape:window-x="0"
     inkscape:window-y="0"
     inkscape:window-maximized="1"
     inkscape:current-layer="layer1" />
  <defs
     id="defs3472" />
  <g
     inkscape:label="Warstwa 1"
     inkscape:groupmode="layer"
     id="layer1"
     transform="translate(-5.4922669,-6.9100447)">
    <g
       id="g3364"
       transform="matrix(0,0.80945438,-0.80945438,0,142.99323,-87.371397)">
      <path
         d="m 139.7656,143.7355 -23.2903,-23.6078 23.0791,-23.3662 23.2841,23.5828 z"
         style="fill:#ffcb23;fill-rule:evenodd"
         id="path68" />
    </g>
    <path
       d="M 5.4922669,25.860018 24.583561,6.9157917 43.555311,25.684935 24.408719,44.665831 Z"
       style="fill:#1b1918;fill-rule:evenodd;stroke-width:0.809455"
       id="path70" />
    <path
       d="m 42.104947,21.477958 0.0016,7.331388 1.559812,0.0032 0.0046,-7.415654 h -1.565801 z m -25.360853,7.202686 -0.194116,-1.366116 c -0.109908,-0.0025 -0.55229,0.194759 -1.163986,0.154123 -2.175913,-0.144325 -1.976932,-3.532378 -0.975399,-4.337705 0.446972,-0.359397 0.977005,-0.49498 1.597948,-0.356646 0.09086,0.02042 0.189297,0.04038 0.269536,0.07164 0.106925,0.04176 0.156028,0.07179 0.2694,0.08079 l 0.281284,-1.360205 C 16.455444,21.30928 15.423875,21.26662 14.925735,21.33664 c -0.621194,0.08742 -1.178257,0.336328 -1.561441,0.6491 -0.369188,0.300552 -0.723484,0.69338 -0.953372,1.231423 -0.559173,1.306542 -0.540313,3.238547 0.298769,4.472722 0.832198,1.223895 2.527846,1.476283 4.034403,0.990772 z m 2.499187,-5.872592 2.230522,0.0025 -0.0046,-1.413874 h -3.818282 l 0.0069,7.417518 3.942438,-0.0016 -0.0069,-1.395337 -2.356721,8.08e-4 0.0016,-1.744292 2.112102,-0.0048 0.0016,-1.366442 -2.112515,-2.41e-4 z m 10.500395,4.284766 1.607974,-0.0032 0.402482,1.727053 1.628211,-6.5e-4 -1.767925,-7.419619 h -2.010202 l -1.83107,7.420996 1.586451,-0.0048 z m 0.197788,-1.282823 0.621332,-3.038855 0.589461,3.038855 z m -3.86509,-0.476364 c 0.09453,-0.105066 0.32192,-0.10206 0.702351,-0.542658 0.161305,-0.18698 0.350832,-0.520155 0.406107,-0.827182 0.209489,-1.169499 -0.231494,-2.051725 -1.234909,-2.414763 -0.671353,-0.242758 -2.595511,-0.228993 -3.335997,-0.03577 l 0.0016,7.302815 1.571055,0.0016 0.0046,-2.881011 c 0.890961,-0.121816 1.071562,0.320301 1.215405,1.065161 0.02065,0.111467 0.335665,1.782582 0.464869,1.815607 l 1.592601,-6.47e-4 c -0.0092,-0.116309 -0.09958,-0.343776 -0.132852,-0.47175 -0.04543,-0.173053 -0.07595,-0.324025 -0.117938,-0.500244 -0.07664,-0.319167 -0.144555,-0.684232 -0.221651,-1.007933 -0.335274,-1.414115 -0.745029,-1.29553 -0.916223,-1.503642 z m -1.898506,-0.653715 c 0.01147,-0.555447 0.01606,-1.12498 0.0092,-1.679375 -0.0046,-0.355188 -0.132164,-0.372592 0.456379,-0.37745 0.948989,-0.0073 1.167886,0.836411 0.937104,1.43824 -0.236129,0.617209 -0.798285,0.640358 -1.403602,0.618585 z m 9.853571,4.133397 1.416864,0.0032 0.247372,-5.399466 1.179129,5.268901 1.154119,-0.0025 1.329465,-5.274162 0.160846,5.395581 1.473699,0.01124 -0.385226,-7.409017 -1.900755,-0.01124 -0.615596,2.502184 c -0.06608,0.265907 -0.510116,2.520074 -0.553506,2.555206 l -1.09219,-5.059657 -1.936548,0.0025 z"
       style="fill:#ffffff;fill-rule:evenodd;stroke-width:0.809455"
       id="path72" />
    <path
       d="m 52.192766,27.081405 1.608066,-0.0032 0.402458,1.72705 1.628143,-4.03e-4 -1.767948,-7.41954 h -2.01018 l -1.83107,7.420673 1.586452,-0.0048 z m 0.197787,-1.282662 0.621332,-3.038853 0.589691,3.038853 z m -7.399379,3.010362 1.518052,-4.06e-4 0.01377,-2.173871 c -7.11e-4,-0.13533 -0.0023,-0.175255 0.02065,-0.20965 l 0.455484,-0.658085 1.333091,3.041606 1.744039,4.04e-4 c 0,-0.108462 -1.218388,-2.592522 -1.344334,-2.854542 l -0.568558,-1.201633 c -0.111284,-0.208113 -0.0436,-0.196457 0.102335,-0.454996 l 1.762189,-2.901003 h -1.857618 l -1.667494,3.20795 v -3.20795 l -1.536569,-0.0064 z"
       style="fill:#1b1918;fill-rule:evenodd;stroke-width:0.809455"
       id="path74" />
    <path
       d="M 95.209194,29.331438 H 100.8923 V 28.275504 H 95.209194 Z"
       style="fill:#009ee0;fill-rule:evenodd;stroke-width:0.809455"
       id="path76" />
    <path
       d="m 65.279795,30.642348 h 9.644564 V 19.753892 h -9.644564 z"
       style="fill:#009ee0;fill-rule:evenodd;stroke-width:0.809455"
       id="path78" />
    <path
       d="m 72.174794,20.907364 v 4.7825 c 0,0.320544 0.0016,0.666343 0.0046,1.02404 l -4.240726,-5.80654 h -1.520323 v 8.581026 h 1.609603 v -4.767523 c 0,-0.348795 -0.0023,-0.731504 -0.01147,-1.120204 l 4.24575,5.887727 h 1.521539 v -8.581026 z"
       style="fill:#ffffff;fill-rule:evenodd;stroke-width:0.809455"
       id="path82" />
    <path
       d="m 80.848114,28.473982 c 1.764437,0 3.109024,-1.300954 3.109024,-3.166828 0,-1.894366 -1.344587,-3.181643 -3.109024,-3.181643 -1.764047,0 -3.109276,1.287277 -3.109276,3.181643 0,1.865874 1.345229,3.166828 3.109276,3.166828 z m 0,-7.389428 c 2.40027,0 4.251739,1.764205 4.251739,4.2226 0,2.42982 -1.851469,4.208352 -4.251739,4.208352 -2.401005,0 -4.251739,-1.778532 -4.251739,-4.208352 0,-2.458395 1.850734,-4.2226 4.251739,-4.2226 z"
       style="fill:#1b1918;fill-rule:evenodd;stroke-width:0.809455"
       id="path84" />
    <path
       d="m 89.076708,29.342284 -3.456459,-8.098996 h 1.244293 l 1.691747,3.963089 c 0.824443,1.937024 1.186013,2.848874 1.200514,2.877367 h 0.02868 c 0.01377,-0.0285 0.347825,-0.895823 1.186012,-2.863607 l 1.677498,-3.976849 h 1.200514 l -3.471098,8.098996 z"
       style="fill:#1b1918;fill-rule:evenodd;stroke-width:0.809455"
       id="path86" />
    <path
       d="m 105.50563,25.235031 c 1.30193,0 1.98154,-0.477255 1.98154,-1.474906 0,-1.041688 -0.73789,-1.489802 -1.98154,-1.489802 h -1.57585 v 2.964708 z m 0.21706,0.896472 c -0.31802,0.01423 -0.723,0.01423 -0.8967,0.01423 h -0.89623 v 3.196534 h -1.12797 v -8.098995 h 2.66116 c 2.0102,0 3.16692,0.882223 3.16692,2.444146 0,1.244052 -0.75265,1.995954 -1.82233,2.241947 l 2.08232,3.412902 h -1.22901 z"
       style="fill:#1b1918;fill-rule:evenodd;stroke-width:0.809455"
       id="path88" />
    <path
       d="m 113.24297,25.235031 c 1.30191,0 1.98154,-0.477255 1.98154,-1.474906 0,-1.041688 -0.73791,-1.489802 -1.98154,-1.489802 h -1.57562 v 2.964708 z m 0.21706,0.896472 c -0.31804,0.01423 -0.723,0.01423 -0.89672,0.01423 h -0.89599 v 3.196534 h -1.12821 v -8.098995 h 2.66029 c 2.01018,0 3.16755,0.882223 3.16755,2.444146 0,1.244052 -0.75239,1.995954 -1.8221,2.241947 l 2.08209,3.412902 h -1.2285 z"
       style="fill:#1b1918;fill-rule:evenodd;stroke-width:0.809455"
       id="path90" />
    <path
       d="m 122.35426,24.381542 c -0.57867,-1.446009 -0.82508,-2.140116 -0.82508,-2.16877 h -0.0431 c 0,0.02866 -0.28954,0.794802 -0.86733,2.270357 l -0.67963,1.706492 h 3.12329 z m -2.80637,2.791486 -0.8387,2.169256 h -1.17112 l 3.3115,-8.098996 h 1.33056 l 3.31214,8.098996 h -1.1865 l -0.85308,-2.169256 z"
       style="fill:#1b1918;fill-rule:evenodd;stroke-width:0.809455"
       id="path92" />
    <path
       d="M 95.209194,22.299222 H 100.8923 V 21.243288 H 95.209194 Z"
       style="fill:#1b1918;fill-rule:evenodd;stroke-width:0.809455"
       id="path94" />
    <path
       d="M 95.209194,25.673513 H 100.8923 V 24.617418 H 95.209194 Z"
       style="fill:#1b1918;fill-rule:evenodd;stroke-width:0.809455"
       id="path96" />
    <path
       d="m 77.720206,30.714391 c 0.03625,-0.03676 0.07778,-0.05188 0.119315,-0.05188 0.04704,0 0.08857,0.01514 0.125051,0.05188 0.03602,0.03651 0.05209,0.07804 0.05209,0.119544 0,0.04176 -0.01606,0.0888 -0.05209,0.119568 l -0.415583,0.415736 c -0.03144,0.03164 -0.07801,0.05229 -0.124821,0.05229 -0.04153,0 -0.08329,-0.01583 -0.119774,-0.05229 -0.03144,-0.03052 -0.04681,-0.07804 -0.04681,-0.119567 0,-0.04637 0.01606,-0.0879 0.04681,-0.119567 z m -1.133055,3.248824 0.197558,-0.280637 c 0.170941,0.192234 0.493757,0.358589 0.846929,0.358589 0.389838,0 0.608712,-0.181955 0.608712,-0.431601 0,-0.607983 -1.586199,-0.234256 -1.586199,-1.164644 0,-0.394689 0.338418,-0.722114 0.951995,-0.722114 0.436623,0 0.742758,0.161075 0.946235,0.364174 l -0.187462,0.270033 c -0.150979,-0.181726 -0.426252,-0.317063 -0.758773,-0.317063 -0.353815,0 -0.572207,0.171125 -0.572207,0.395095 0,0.545654 1.585718,0.18675 1.585718,1.163996 0,0.421482 -0.343283,0.759267 -0.99839,0.759267 -0.42584,0 -0.7744,-0.130328 -1.034139,-0.395095 z"
       style="fill:#1b1918;fill-rule:evenodd;stroke-width:0.809455"
       id="path98" />
    <path
       d="m 82.007739,34.296145 -0.670228,-2.01716 -0.67071,2.01716 h -0.395116 l -0.816159,-2.511172 h 0.410718 l 0.62895,2.001539 0.670458,-2.001539 h 0.348078 l 0.665203,2.001539 0.629111,-2.001539 h 0.416225 l -0.816343,2.511172 z"
       style="fill:#1b1918;fill-rule:evenodd;stroke-width:0.809455"
       id="path100" />
    <path
       d="m 84.236403,34.296145 v -2.511172 h 0.395345 v 2.511172 z m 0.197329,-3.394771 c 0.130558,0 0.239501,0.109196 0.239501,0.23976 0,0.129182 -0.108989,0.234094 -0.239501,0.234094 -0.129182,0 -0.233605,-0.104905 -0.233605,-0.234094 0,-0.130557 0.1044,-0.23976 0.233605,-0.23976 z"
       style="fill:#1b1918;fill-rule:evenodd;stroke-width:0.809455"
       id="path102" />
    <path
       d="m 87.947761,33.038009 c 0,-0.509146 -0.301683,-0.966407 -0.847595,-0.966407 -0.545154,0 -0.847571,0.457261 -0.847571,0.966407 0,0.514247 0.302417,0.971751 0.847571,0.971751 0.545912,0 0.847595,-0.457504 0.847595,-0.971751 z m 0.358655,-1.253036 v 2.511172 H 87.911094 V 33.92671 c -0.233628,0.34855 -0.592926,0.4316 -0.810928,0.4316 -0.779654,0 -1.268156,-0.592682 -1.268156,-1.320301 0,-0.727779 0.488502,-1.315201 1.268156,-1.315201 0.198017,0 0.571794,0.07804 0.810928,0.436619 v -0.374454 z"
       style="fill:#1b1918;fill-rule:evenodd;stroke-width:0.809455"
       id="path104" />
    <path
       d="m 90.16128,33.329009 c 0,0.109678 0.01606,0.680751 0.65972,0.680751 v 0.34855 c -1.028655,0 -1.055042,-0.868219 -1.055042,-1.024283 v -1.205764 h -0.446994 v -0.34329 h 0.446994 c 0,-0.379228 0,-0.685365 0,-0.685365 h 0.395322 c 0,0 0,0.306137 0,0.685365 H 90.821 v 0.34329 h -0.65972 z"
       style="fill:#1b1918;fill-rule:evenodd;stroke-width:0.809455"
       id="path106" />
    <path
       d="m 93.77792,34.296145 v -1.471508 l -0.156027,0.07804 c -0.08329,0.04153 -0.181726,0.01537 -0.223027,-0.0675 -0.04176,-0.08306 -0.01147,-0.186751 0.067,-0.223256 l 0.312031,-0.161075 v -1.621985 h 0.395093 v 1.413707 L 94.396476,32.123 c 0.08834,-0.04637 0.187003,-0.01537 0.228763,0.07294 0.04612,0.07827 0.0092,0.181726 -0.06746,0.223486 l -0.384813,0.197581 v 1.679132 z"
       style="fill:#1b1918;fill-rule:evenodd;stroke-width:0.809455"
       id="path108" />
    <path
       d="m 97.447104,33.038009 c 0,-0.509146 -0.301522,-0.966407 -0.846929,-0.966407 -0.545911,0 -0.847342,0.457261 -0.847342,0.966407 0,0.514247 0.301431,0.971751 0.847342,0.971751 0.545407,0 0.846929,-0.457504 0.846929,-0.971751 z m 0.358587,-1.253036 v 2.511172 H 97.411723 V 33.92671 c -0.2345,0.34855 -0.593569,0.4316 -0.811548,0.4316 -0.779906,0 -1.268408,-0.592682 -1.268408,-1.320301 0,-0.727779 0.488502,-1.315201 1.268408,-1.315201 0.198017,0 0.571312,0.07804 0.811548,0.436619 v -0.374454 z"
       style="fill:#1b1918;fill-rule:evenodd;stroke-width:0.809455"
       id="path110" />
    <path
       d="m 98.995673,34.296145 v -0.30727 l 1.413627,-1.860612 h -1.413627 v -0.34329 h 1.933547 v 0.296505 l -1.424646,1.871378 h 1.445266 v 0.343289 z"
       style="fill:#1b1918;fill-rule:evenodd;stroke-width:0.809455"
       id="path112" />
    <path
       d="m 102.17562,34.296145 v -2.511172 h 0.39509 v 2.511172 z m 0.19733,-3.394771 c 0.13056,0 0.23927,0.109196 0.23927,0.23976 0,0.129182 -0.10876,0.234094 -0.23927,0.234094 -0.12941,0 -0.23287,-0.104905 -0.23287,-0.234094 0,-0.130557 0.10348,-0.23976 0.23287,-0.23976 z"
       style="fill:#1b1918;fill-rule:evenodd;stroke-width:0.809455"
       id="path114" />
    <path
       d="m 105.87693,32.876766 c -0.005,-0.368545 -0.25999,-0.805164 -0.8428,-0.805164 -0.54518,0 -0.81593,0.425612 -0.83658,0.805164 z m -2.09997,0.161236 c 0,-0.727779 0.53027,-1.315201 1.26316,-1.315201 0.7744,0 1.2319,0.592683 1.2319,1.346448 v 0.09866 h -2.06848 c 0.0305,0.47337 0.36345,0.841833 0.91475,0.841833 0.29627,0 0.57092,-0.113808 0.77442,-0.322162 l 0.21316,0.281122 c -0.26049,0.249393 -0.60329,0.389591 -1.01927,0.389591 -0.76428,0 -1.30968,-0.535293 -1.30968,-1.320302 z"
       style="fill:#1b1918;fill-rule:evenodd;stroke-width:0.809455"
       id="path116" />
    <path
       d="m 109.1663,34.296145 v -1.642706 c 0,-0.447144 -0.23425,-0.581837 -0.58168,-0.581837 -0.31219,0 -0.7599,0.21814 -0.7599,0.966407 v 1.258136 h -0.39509 v -2.511172 h 0.39509 v 0.363688 c 0.18173,-0.212885 0.53052,-0.425853 0.92084,-0.425853 0.52929,0 0.80994,0.265258 0.80994,0.811155 v 1.762182 z"
       style="fill:#1b1918;fill-rule:evenodd;stroke-width:0.809455"
       id="path118" />
    <path
       d="m 112.81896,32.876766 c -0.005,-0.368545 -0.25976,-0.805164 -0.84142,-0.805164 -0.5463,0 -0.81593,0.425612 -0.83658,0.805164 z m -2.09996,0.161236 c 0,-0.727779 0.53026,-1.315201 1.26338,-1.315201 0.77443,0 1.23193,0.592683 1.23193,1.346448 v 0.09866 h -2.06848 c 0.0314,0.47337 0.3632,0.841833 0.91484,0.841833 0.29593,0 0.57196,-0.113808 0.77433,-0.322162 l 0.21316,0.281122 c -0.25976,0.249393 -0.60368,0.389591 -1.01927,0.389591 -0.7634,0 -1.30994,-0.535293 -1.30994,-1.320302 z"
       style="fill:#1b1918;fill-rule:evenodd;stroke-width:0.809455"
       id="path120" />
    <path
       d="m 116.11433,34.296145 -0.9146,-1.128218 -0.4316,0.411122 v 0.717096 h -0.39509 v -3.467299 h 0.39509 v 2.292052 l 1.3462,-1.335925 h 0.50364 l -1.13298,1.138822 1.13785,1.37235 z"
       style="fill:#1b1918;fill-rule:evenodd;stroke-width:0.809455"
       id="path122" />
    <path
       d="m 65.279795,32.961597 h 9.644564 v -0.09632 h -9.644564 z"
       style="fill:#009ee0;fill-rule:evenodd;stroke-width:0.809455"
       id="path124" />
    <path
       d="m 118.28221,32.961597 h 7.21006 v -0.09632 h -7.21006 z"
       style="fill:#009ee0;fill-rule:evenodd;stroke-width:0.809455"
       id="path126" />
  </g>
</svg>
